# xmcd
#
# Track frame offsets:
#	150
#	21580
#	41269
#	54994
#	75252
#	88997
#	100057
#	117294
#	132877
#	152974
#	172530
#	186159
#	203367
#
# Disc length: 2966 seconds
#
# Revision: 2
# Processed by: cddbd v1.5.2PL0 Copyright (c) Steve Scherf et al.
# Submitted via: EasyCDDAExtractor 16.0.6.1
#
DISCID=960b940d
DTITLE=Irma Thomas - After the Rain
DYEAR=2006
DGENRE=Soul
TTITLE0=In the Middle of It All
TTITLE1=Flowers
TTITLE2=I Count the Tears
TTITLE3=Make Me a Pallet on Your Floor
TTITLE4=I Wish I Knew How It Would Feel to Be Free
TTITLE5=If You Knew How Much
TTITLE6=Another Man Done Gone
TTITLE7=Till I Can't Take It Anymore
TTITLE8=These Honey Dos
TTITLE9=Another Lonely Heart
TTITLE10=Soul of a Man
TTITLE11=Stone Survivor
TTITLE12=Shelter in the Rain
EXTD=
EXTT0=
EXTT1=
EXTT2=
EXTT3=
EXTT4=
EXTT5=
EXTT6=
EXTT7=
EXTT8=
EXTT9=
EXTT10=
EXTT11=
EXTT12=
PLAYORDER=
